<svg fill="none" xmlns="http://www.w3.org/2000/svg" viewBox="0 0 815 815" class="flag-globe">
  <path fill="rgba(255, 255, 255, 35%)" d="M282 89c18 4 63 4 97-29 33-33 86-48 108-52-8 9-25 31-29 46 19 5 58 19 69 35-25 0-79 7-102 43s-81 39-107 36l-36-79Z"/>
  <path fill="rgba(255, 255, 255, 35%)" fill-rule="evenodd" clip-rule="evenodd" d="m258 68-19 8 105 248-12-2c-9 0-12 10-12 16-12 4-33 11-26 0 7-12-1-15-5-16h-43c-11 0-21 3-26 4-4 1-6 2-4 0 4-3-1-7-4-9-9-4-25-8-25 5s-11 16-17 16c-4-2-16-2-26 4l-9 7a310 310 0 1 0 500-63l-26-23c-7-6-24-20-36-28-12-7-15-3-15 0-2-6-11-17-23-7-12 9-5 15 0 17 8 1 21 4 11 8s-5 16 0 21l-64-8c-17-2-15 11-12 18-8 5-18-1-22-5 2-3 4-11-12-13s-27-1-31 0c-2 24-15 22-22 18-8 6-20 19-5 19 14 1 15 8 13 12l-4 14-19-2L258 68Zm71 263c-1-4 6-4 17-3l49 117c-26-5-57-10-66-5-13 6-10 12-6 14 3 3 5 9-9 11-15 3-16-9-15-14 2-7 0-21-20-25-20-5-60-8-78-9-5-1-16-6-20-15-5-8 7-10 13-10-2-10-10-29-27-23-17 5-15 14-12 18-11-10-25-31 8-41 32-9 34-16 31-18 1-4 6-11 15-7s4 11 0 14c13-4 49-10 86-7 0 3-2 11-5 18-4 8 20 3 33 0 2-1 7-6 6-15Zm95 61c-17 4-10 38-5 57l-49-118 16 4c3-4 10-14 10-30-1-3-6-8-17-7 0-3 3-10 17-7 13 3 14-11 13-19h32c-1 6 1 17 17 17 15 0 19-7 19-10 16 1 53 4 73 8 20 3 21 6 20 7l-8 9 17 22c-11-1-36-3-48-6-12-4-9 11-6 19-6-2-20-8-21-17-1-10-52-4-77 0-4 11-10 36-3 48 7 11 22 4 28 0-2 5-10 18-28 23Z"/>
  <path fill="rgba(255, 255, 255, 15%)" fill-rule="evenodd" clip-rule="evenodd" d="M208 320a11 11 0 0 0-5 0c-5 1-8 5-9 8 2 1 2 4-6 9-5 2-13 6-25 9-32 9-19 30-9 40-2-4-3-12 13-17 4-2 8-2 11 0 10 3 15 15 16 23h-2l-9 2c-3 1-4 4-2 8 3 5 8 9 13 12a46 46 0 0 0 7 3 656 656 0 0 1 88 12c11 6 12 16 10 22-1 4 0 11 6 14h8c15-2 13-8 9-11-3-2-6-8 6-14 10-5 41 0 67 5l-49-117c-9-1-15-1-17 1l-1 1v1l1-1v1c1 6-2 11-4 13l-2 2h-1c-12 3-36 8-33 0 4-8 5-15 6-18h-7a285 285 0 0 0-79 7c4-3 9-10 0-14l-1-1Zm121 9v1-1Z"/>
  <path fill="rgba(255, 255, 255, 15%)" d="m389 299 2 1c3 1 4 3 5 5 0 16-7 26-10 30a269 269 0 0 0-16-4l48 115c-5-19-10-50 6-54 17-5 25-17 28-23l-2 2c-6 3-13 6-19 3l-7-5c-7-12-1-37 3-48 21-4 61-8 73-4 3 1 4 2 4 4 1 8 11 13 18 16l3 1c-3-8-7-23 5-19 12 3 37 5 48 6l-16-22 7-9c1-1 1-2-3-3a103 103 0 0 0-24-6c-21-3-51-5-65-6l-1 3c-2 3-7 7-18 7h-3l-5-2c-8-3-10-10-9-15h-32v3c0 8-2 19-13 16h-3c-6-1-10 1-12 3l-2 4 10 1Z"/>
</svg>